<mxfile host="Electron" modified="2024-05-28T05:43:26.229Z" agent="Mozilla/5.0 (Windows NT 10.0; Win64; x64) AppleWebKit/537.36 (KHTML, like Gecko) draw.io/24.4.0 Chrome/120.0.6099.109 Electron/28.1.0 Safari/537.36" etag="4U_LdoI4OVMpRchVE5fz" version="24.4.0" type="device" pages="2">
  <diagram name="Modelo entidade relacionamento" id="MSXf-9ABbbkHyXilHQQc">
    <mxGraphModel dx="1680" dy="932" grid="1" gridSize="10" guides="1" tooltips="1" connect="1" arrows="1" fold="1" page="0" pageScale="1" pageWidth="827" pageHeight="1169" math="0" shadow="0">
      <root>
        <mxCell id="0" />
        <mxCell id="1" parent="0" />
        <mxCell id="IoURBYvWbgCN-et8Zjcs-11" value="Apelido" style="ellipse;whiteSpace=wrap;html=1;" parent="1" vertex="1">
          <mxGeometry x="330" y="-72.5" width="80" height="30" as="geometry" />
        </mxCell>
        <mxCell id="IoURBYvWbgCN-et8Zjcs-40" value="&lt;u&gt;ID&lt;/u&gt;" style="ellipse;whiteSpace=wrap;html=1;" parent="1" vertex="1">
          <mxGeometry x="-471" y="40" width="80" height="32" as="geometry" />
        </mxCell>
        <mxCell id="IoURBYvWbgCN-et8Zjcs-46" value="Gols time da casa" style="ellipse;whiteSpace=wrap;html=1;" parent="1" vertex="1">
          <mxGeometry x="-64" y="-180" width="90" height="52" as="geometry" />
        </mxCell>
        <mxCell id="IoURBYvWbgCN-et8Zjcs-48" value="Gols Time Visitante" style="ellipse;whiteSpace=wrap;html=1;" parent="1" vertex="1">
          <mxGeometry x="26" y="-177" width="92" height="46" as="geometry" />
        </mxCell>
        <mxCell id="4my753jydMD6D_Fe-w93-34" style="edgeStyle=orthogonalEdgeStyle;rounded=0;orthogonalLoop=1;jettySize=auto;html=1;exitX=0.344;exitY=0.991;exitDx=0;exitDy=0;endArrow=none;endFill=0;exitPerimeter=0;" parent="1" source="Jo0naE-_vCHYN8LqwO7P-1" target="IoURBYvWbgCN-et8Zjcs-40" edge="1">
          <mxGeometry relative="1" as="geometry">
            <Array as="points">
              <mxPoint x="-424" y="20" />
              <mxPoint x="-424" y="60" />
            </Array>
          </mxGeometry>
        </mxCell>
        <mxCell id="Jo0naE-_vCHYN8LqwO7P-1" value="&lt;font style=&quot;font-size: 18px;&quot;&gt;Campeonato&lt;/font&gt;" style="whiteSpace=wrap;html=1;align=center;" parent="1" vertex="1">
          <mxGeometry x="-570" y="-140" width="291" height="161.5" as="geometry" />
        </mxCell>
        <mxCell id="-k1p4NH_bwV_vG6aE-CP-37" value="" style="edgeStyle=orthogonalEdgeStyle;rounded=0;orthogonalLoop=1;jettySize=auto;html=1;endArrow=none;endFill=0;" parent="1" source="7fP72__fb8I-MQEqWGat-1" target="7fP72__fb8I-MQEqWGat-3" edge="1">
          <mxGeometry relative="1" as="geometry" />
        </mxCell>
        <mxCell id="7fP72__fb8I-MQEqWGat-1" value="&lt;u&gt;Nome&lt;/u&gt;" style="ellipse;whiteSpace=wrap;html=1;" parent="1" vertex="1">
          <mxGeometry x="250" y="-72.5" width="80" height="30" as="geometry" />
        </mxCell>
        <mxCell id="7fP72__fb8I-MQEqWGat-2" value="DataCriacao" style="ellipse;whiteSpace=wrap;html=1;" parent="1" vertex="1">
          <mxGeometry x="400" y="-72.5" width="80" height="30" as="geometry" />
        </mxCell>
        <mxCell id="m8XkgOcHn2Fhn5VSv-pF-22" style="edgeStyle=orthogonalEdgeStyle;rounded=0;orthogonalLoop=1;jettySize=auto;html=1;exitX=0.5;exitY=1;exitDx=0;exitDy=0;entryX=0.5;entryY=0;entryDx=0;entryDy=0;endArrow=none;endFill=0;" parent="1" target="m8XkgOcHn2Fhn5VSv-pF-20" edge="1">
          <mxGeometry relative="1" as="geometry">
            <mxPoint x="152" as="sourcePoint" />
            <mxPoint x="42" y="102" as="targetPoint" />
            <Array as="points">
              <mxPoint x="152" y="50" />
              <mxPoint x="42" y="50" />
              <mxPoint x="42" y="115" />
              <mxPoint x="45" y="115" />
            </Array>
          </mxGeometry>
        </mxCell>
        <mxCell id="-k1p4NH_bwV_vG6aE-CP-25" value="1" style="edgeLabel;html=1;align=center;verticalAlign=middle;resizable=0;points=[];" parent="m8XkgOcHn2Fhn5VSv-pF-22" vertex="1" connectable="0">
          <mxGeometry x="0.0336" y="1" relative="1" as="geometry">
            <mxPoint as="offset" />
          </mxGeometry>
        </mxCell>
        <mxCell id="7fP72__fb8I-MQEqWGat-3" value="Time" style="whiteSpace=wrap;html=1;align=center;" parent="1" vertex="1">
          <mxGeometry x="100" y="-42.5" width="110" height="55" as="geometry" />
        </mxCell>
        <mxCell id="7fP72__fb8I-MQEqWGat-4" value="Time" style="shape=table;startSize=30;container=1;collapsible=1;childLayout=tableLayout;fixedRows=1;rowLines=0;fontStyle=1;align=center;resizeLast=1;html=1;" parent="1" vertex="1">
          <mxGeometry x="-250" y="1284" width="180" height="210" as="geometry" />
        </mxCell>
        <mxCell id="7fP72__fb8I-MQEqWGat-5" value="" style="shape=tableRow;horizontal=0;startSize=0;swimlaneHead=0;swimlaneBody=0;fillColor=none;collapsible=0;dropTarget=0;points=[[0,0.5],[1,0.5]];portConstraint=eastwest;top=0;left=0;right=0;bottom=1;" parent="7fP72__fb8I-MQEqWGat-4" vertex="1">
          <mxGeometry y="30" width="180" height="30" as="geometry" />
        </mxCell>
        <mxCell id="7fP72__fb8I-MQEqWGat-6" value="PK" style="shape=partialRectangle;connectable=0;fillColor=none;top=0;left=0;bottom=0;right=0;fontStyle=1;overflow=hidden;whiteSpace=wrap;html=1;" parent="7fP72__fb8I-MQEqWGat-5" vertex="1">
          <mxGeometry width="30" height="30" as="geometry">
            <mxRectangle width="30" height="30" as="alternateBounds" />
          </mxGeometry>
        </mxCell>
        <mxCell id="7fP72__fb8I-MQEqWGat-7" value="Nome" style="shape=partialRectangle;connectable=0;fillColor=none;top=0;left=0;bottom=0;right=0;align=left;spacingLeft=6;fontStyle=5;overflow=hidden;whiteSpace=wrap;html=1;" parent="7fP72__fb8I-MQEqWGat-5" vertex="1">
          <mxGeometry x="30" width="150" height="30" as="geometry">
            <mxRectangle width="150" height="30" as="alternateBounds" />
          </mxGeometry>
        </mxCell>
        <mxCell id="m8XkgOcHn2Fhn5VSv-pF-16" style="shape=tableRow;horizontal=0;startSize=0;swimlaneHead=0;swimlaneBody=0;fillColor=none;collapsible=0;dropTarget=0;points=[[0,0.5],[1,0.5]];portConstraint=eastwest;top=0;left=0;right=0;bottom=0;" parent="7fP72__fb8I-MQEqWGat-4" vertex="1">
          <mxGeometry y="60" width="180" height="30" as="geometry" />
        </mxCell>
        <mxCell id="m8XkgOcHn2Fhn5VSv-pF-17" style="shape=partialRectangle;connectable=0;fillColor=none;top=0;left=0;bottom=0;right=0;editable=1;overflow=hidden;whiteSpace=wrap;html=1;" parent="m8XkgOcHn2Fhn5VSv-pF-16" vertex="1">
          <mxGeometry width="30" height="30" as="geometry">
            <mxRectangle width="30" height="30" as="alternateBounds" />
          </mxGeometry>
        </mxCell>
        <mxCell id="m8XkgOcHn2Fhn5VSv-pF-18" value="Apelido" style="shape=partialRectangle;connectable=0;fillColor=none;top=0;left=0;bottom=0;right=0;align=left;spacingLeft=6;overflow=hidden;whiteSpace=wrap;html=1;" parent="m8XkgOcHn2Fhn5VSv-pF-16" vertex="1">
          <mxGeometry x="30" width="150" height="30" as="geometry">
            <mxRectangle width="150" height="30" as="alternateBounds" />
          </mxGeometry>
        </mxCell>
        <mxCell id="7fP72__fb8I-MQEqWGat-8" value="" style="shape=tableRow;horizontal=0;startSize=0;swimlaneHead=0;swimlaneBody=0;fillColor=none;collapsible=0;dropTarget=0;points=[[0,0.5],[1,0.5]];portConstraint=eastwest;top=0;left=0;right=0;bottom=0;" parent="7fP72__fb8I-MQEqWGat-4" vertex="1">
          <mxGeometry y="90" width="180" height="30" as="geometry" />
        </mxCell>
        <mxCell id="7fP72__fb8I-MQEqWGat-9" value="" style="shape=partialRectangle;connectable=0;fillColor=none;top=0;left=0;bottom=0;right=0;editable=1;overflow=hidden;whiteSpace=wrap;html=1;" parent="7fP72__fb8I-MQEqWGat-8" vertex="1">
          <mxGeometry width="30" height="30" as="geometry">
            <mxRectangle width="30" height="30" as="alternateBounds" />
          </mxGeometry>
        </mxCell>
        <mxCell id="7fP72__fb8I-MQEqWGat-10" value="DataCriacao" style="shape=partialRectangle;connectable=0;fillColor=none;top=0;left=0;bottom=0;right=0;align=left;spacingLeft=6;overflow=hidden;whiteSpace=wrap;html=1;" parent="7fP72__fb8I-MQEqWGat-8" vertex="1">
          <mxGeometry x="30" width="150" height="30" as="geometry">
            <mxRectangle width="150" height="30" as="alternateBounds" />
          </mxGeometry>
        </mxCell>
        <mxCell id="7fP72__fb8I-MQEqWGat-11" value="" style="shape=tableRow;horizontal=0;startSize=0;swimlaneHead=0;swimlaneBody=0;fillColor=none;collapsible=0;dropTarget=0;points=[[0,0.5],[1,0.5]];portConstraint=eastwest;top=0;left=0;right=0;bottom=0;" parent="7fP72__fb8I-MQEqWGat-4" vertex="1">
          <mxGeometry y="120" width="180" height="30" as="geometry" />
        </mxCell>
        <mxCell id="7fP72__fb8I-MQEqWGat-12" value="" style="shape=partialRectangle;connectable=0;fillColor=none;top=0;left=0;bottom=0;right=0;editable=1;overflow=hidden;whiteSpace=wrap;html=1;" parent="7fP72__fb8I-MQEqWGat-11" vertex="1">
          <mxGeometry width="30" height="30" as="geometry">
            <mxRectangle width="30" height="30" as="alternateBounds" />
          </mxGeometry>
        </mxCell>
        <mxCell id="7fP72__fb8I-MQEqWGat-13" value="Pontuacao" style="shape=partialRectangle;connectable=0;fillColor=none;top=0;left=0;bottom=0;right=0;align=left;spacingLeft=6;overflow=hidden;whiteSpace=wrap;html=1;" parent="7fP72__fb8I-MQEqWGat-11" vertex="1">
          <mxGeometry x="30" width="150" height="30" as="geometry">
            <mxRectangle width="150" height="30" as="alternateBounds" />
          </mxGeometry>
        </mxCell>
        <mxCell id="4my753jydMD6D_Fe-w93-35" style="shape=tableRow;horizontal=0;startSize=0;swimlaneHead=0;swimlaneBody=0;fillColor=none;collapsible=0;dropTarget=0;points=[[0,0.5],[1,0.5]];portConstraint=eastwest;top=0;left=0;right=0;bottom=0;" parent="7fP72__fb8I-MQEqWGat-4" vertex="1">
          <mxGeometry y="150" width="180" height="30" as="geometry" />
        </mxCell>
        <mxCell id="4my753jydMD6D_Fe-w93-36" style="shape=partialRectangle;connectable=0;fillColor=none;top=0;left=0;bottom=0;right=0;editable=1;overflow=hidden;whiteSpace=wrap;html=1;" parent="4my753jydMD6D_Fe-w93-35" vertex="1">
          <mxGeometry width="30" height="30" as="geometry">
            <mxRectangle width="30" height="30" as="alternateBounds" />
          </mxGeometry>
        </mxCell>
        <mxCell id="4my753jydMD6D_Fe-w93-37" value="Gols Feitos" style="shape=partialRectangle;connectable=0;fillColor=none;top=0;left=0;bottom=0;right=0;align=left;spacingLeft=6;overflow=hidden;whiteSpace=wrap;html=1;" parent="4my753jydMD6D_Fe-w93-35" vertex="1">
          <mxGeometry x="30" width="150" height="30" as="geometry">
            <mxRectangle width="150" height="30" as="alternateBounds" />
          </mxGeometry>
        </mxCell>
        <mxCell id="m8XkgOcHn2Fhn5VSv-pF-6" style="shape=tableRow;horizontal=0;startSize=0;swimlaneHead=0;swimlaneBody=0;fillColor=none;collapsible=0;dropTarget=0;points=[[0,0.5],[1,0.5]];portConstraint=eastwest;top=0;left=0;right=0;bottom=0;" parent="7fP72__fb8I-MQEqWGat-4" vertex="1">
          <mxGeometry y="180" width="180" height="30" as="geometry" />
        </mxCell>
        <mxCell id="m8XkgOcHn2Fhn5VSv-pF-7" style="shape=partialRectangle;connectable=0;fillColor=none;top=0;left=0;bottom=0;right=0;editable=1;overflow=hidden;whiteSpace=wrap;html=1;" parent="m8XkgOcHn2Fhn5VSv-pF-6" vertex="1">
          <mxGeometry width="30" height="30" as="geometry">
            <mxRectangle width="30" height="30" as="alternateBounds" />
          </mxGeometry>
        </mxCell>
        <mxCell id="m8XkgOcHn2Fhn5VSv-pF-8" value="Gols Contra" style="shape=partialRectangle;connectable=0;fillColor=none;top=0;left=0;bottom=0;right=0;align=left;spacingLeft=6;overflow=hidden;whiteSpace=wrap;html=1;" parent="m8XkgOcHn2Fhn5VSv-pF-6" vertex="1">
          <mxGeometry x="30" width="150" height="30" as="geometry">
            <mxRectangle width="150" height="30" as="alternateBounds" />
          </mxGeometry>
        </mxCell>
        <mxCell id="7fP72__fb8I-MQEqWGat-17" value="Campeonato" style="shape=table;startSize=30;container=1;collapsible=1;childLayout=tableLayout;fixedRows=1;rowLines=0;fontStyle=1;align=center;resizeLast=1;html=1;" parent="1" vertex="1">
          <mxGeometry x="340" y="1284" width="210" height="209" as="geometry" />
        </mxCell>
        <mxCell id="7fP72__fb8I-MQEqWGat-18" value="" style="shape=tableRow;horizontal=0;startSize=0;swimlaneHead=0;swimlaneBody=0;fillColor=none;collapsible=0;dropTarget=0;points=[[0,0.5],[1,0.5]];portConstraint=eastwest;top=0;left=0;right=0;bottom=1;" parent="7fP72__fb8I-MQEqWGat-17" vertex="1">
          <mxGeometry y="30" width="210" height="30" as="geometry" />
        </mxCell>
        <mxCell id="7fP72__fb8I-MQEqWGat-19" value="PK" style="shape=partialRectangle;connectable=0;fillColor=none;top=0;left=0;bottom=0;right=0;fontStyle=1;overflow=hidden;whiteSpace=wrap;html=1;" parent="7fP72__fb8I-MQEqWGat-18" vertex="1">
          <mxGeometry width="30" height="30" as="geometry">
            <mxRectangle width="30" height="30" as="alternateBounds" />
          </mxGeometry>
        </mxCell>
        <mxCell id="7fP72__fb8I-MQEqWGat-20" value="ID Campeonato" style="shape=partialRectangle;connectable=0;fillColor=none;top=0;left=0;bottom=0;right=0;align=left;spacingLeft=6;fontStyle=5;overflow=hidden;whiteSpace=wrap;html=1;" parent="7fP72__fb8I-MQEqWGat-18" vertex="1">
          <mxGeometry x="30" width="180" height="30" as="geometry">
            <mxRectangle width="180" height="30" as="alternateBounds" />
          </mxGeometry>
        </mxCell>
        <mxCell id="7fP72__fb8I-MQEqWGat-21" value="" style="shape=tableRow;horizontal=0;startSize=0;swimlaneHead=0;swimlaneBody=0;fillColor=none;collapsible=0;dropTarget=0;points=[[0,0.5],[1,0.5]];portConstraint=eastwest;top=0;left=0;right=0;bottom=0;" parent="7fP72__fb8I-MQEqWGat-17" vertex="1">
          <mxGeometry y="60" width="210" height="30" as="geometry" />
        </mxCell>
        <mxCell id="7fP72__fb8I-MQEqWGat-22" value="" style="shape=partialRectangle;connectable=0;fillColor=none;top=0;left=0;bottom=0;right=0;editable=1;overflow=hidden;whiteSpace=wrap;html=1;" parent="7fP72__fb8I-MQEqWGat-21" vertex="1">
          <mxGeometry width="30" height="30" as="geometry">
            <mxRectangle width="30" height="30" as="alternateBounds" />
          </mxGeometry>
        </mxCell>
        <mxCell id="7fP72__fb8I-MQEqWGat-23" value="Nome Campeonato" style="shape=partialRectangle;connectable=0;fillColor=none;top=0;left=0;bottom=0;right=0;align=left;spacingLeft=6;overflow=hidden;whiteSpace=wrap;html=1;" parent="7fP72__fb8I-MQEqWGat-21" vertex="1">
          <mxGeometry x="30" width="180" height="30" as="geometry">
            <mxRectangle width="180" height="30" as="alternateBounds" />
          </mxGeometry>
        </mxCell>
        <mxCell id="7fP72__fb8I-MQEqWGat-30" style="shape=tableRow;horizontal=0;startSize=0;swimlaneHead=0;swimlaneBody=0;fillColor=none;collapsible=0;dropTarget=0;points=[[0,0.5],[1,0.5]];portConstraint=eastwest;top=0;left=0;right=0;bottom=0;" parent="7fP72__fb8I-MQEqWGat-17" vertex="1">
          <mxGeometry y="90" width="210" height="30" as="geometry" />
        </mxCell>
        <mxCell id="7fP72__fb8I-MQEqWGat-31" style="shape=partialRectangle;connectable=0;fillColor=none;top=0;left=0;bottom=0;right=0;editable=1;overflow=hidden;whiteSpace=wrap;html=1;" parent="7fP72__fb8I-MQEqWGat-30" vertex="1">
          <mxGeometry width="30" height="30" as="geometry">
            <mxRectangle width="30" height="30" as="alternateBounds" />
          </mxGeometry>
        </mxCell>
        <mxCell id="7fP72__fb8I-MQEqWGat-32" value="Ano Campeonato" style="shape=partialRectangle;connectable=0;fillColor=none;top=0;left=0;bottom=0;right=0;align=left;spacingLeft=6;overflow=hidden;whiteSpace=wrap;html=1;" parent="7fP72__fb8I-MQEqWGat-30" vertex="1">
          <mxGeometry x="30" width="180" height="30" as="geometry">
            <mxRectangle width="180" height="30" as="alternateBounds" />
          </mxGeometry>
        </mxCell>
        <mxCell id="4my753jydMD6D_Fe-w93-56" style="shape=tableRow;horizontal=0;startSize=0;swimlaneHead=0;swimlaneBody=0;fillColor=none;collapsible=0;dropTarget=0;points=[[0,0.5],[1,0.5]];portConstraint=eastwest;top=0;left=0;right=0;bottom=0;" parent="7fP72__fb8I-MQEqWGat-17" vertex="1">
          <mxGeometry y="120" width="210" height="30" as="geometry" />
        </mxCell>
        <mxCell id="4my753jydMD6D_Fe-w93-57" value="" style="shape=partialRectangle;connectable=0;fillColor=none;top=0;left=0;bottom=0;right=0;editable=1;overflow=hidden;whiteSpace=wrap;html=1;" parent="4my753jydMD6D_Fe-w93-56" vertex="1">
          <mxGeometry width="30" height="30" as="geometry">
            <mxRectangle width="30" height="30" as="alternateBounds" />
          </mxGeometry>
        </mxCell>
        <mxCell id="4my753jydMD6D_Fe-w93-58" style="shape=partialRectangle;connectable=0;fillColor=none;top=0;left=0;bottom=0;right=0;align=left;spacingLeft=6;overflow=hidden;whiteSpace=wrap;html=1;" parent="4my753jydMD6D_Fe-w93-56" vertex="1">
          <mxGeometry x="30" width="180" height="30" as="geometry">
            <mxRectangle width="180" height="30" as="alternateBounds" />
          </mxGeometry>
        </mxCell>
        <mxCell id="7fP72__fb8I-MQEqWGat-24" value="" style="shape=tableRow;horizontal=0;startSize=0;swimlaneHead=0;swimlaneBody=0;fillColor=none;collapsible=0;dropTarget=0;points=[[0,0.5],[1,0.5]];portConstraint=eastwest;top=0;left=0;right=0;bottom=0;" parent="7fP72__fb8I-MQEqWGat-17" vertex="1">
          <mxGeometry y="150" width="210" height="30" as="geometry" />
        </mxCell>
        <mxCell id="7fP72__fb8I-MQEqWGat-25" value="&lt;span style=&quot;white-space: pre;&quot;&gt; &lt;/span&gt;" style="shape=partialRectangle;connectable=0;fillColor=none;top=0;left=0;bottom=0;right=0;editable=1;overflow=hidden;whiteSpace=wrap;html=1;" parent="7fP72__fb8I-MQEqWGat-24" vertex="1">
          <mxGeometry width="30" height="30" as="geometry">
            <mxRectangle width="30" height="30" as="alternateBounds" />
          </mxGeometry>
        </mxCell>
        <mxCell id="7fP72__fb8I-MQEqWGat-26" value="Time que recebeu mais gols" style="shape=partialRectangle;connectable=0;fillColor=none;top=0;left=0;bottom=0;right=0;align=left;spacingLeft=6;overflow=hidden;whiteSpace=wrap;html=1;" parent="7fP72__fb8I-MQEqWGat-24" vertex="1">
          <mxGeometry x="30" width="180" height="30" as="geometry">
            <mxRectangle width="180" height="30" as="alternateBounds" />
          </mxGeometry>
        </mxCell>
        <mxCell id="7fP72__fb8I-MQEqWGat-27" style="shape=tableRow;horizontal=0;startSize=0;swimlaneHead=0;swimlaneBody=0;fillColor=none;collapsible=0;dropTarget=0;points=[[0,0.5],[1,0.5]];portConstraint=eastwest;top=0;left=0;right=0;bottom=0;" parent="7fP72__fb8I-MQEqWGat-17" vertex="1">
          <mxGeometry y="180" width="210" height="29" as="geometry" />
        </mxCell>
        <mxCell id="7fP72__fb8I-MQEqWGat-28" style="shape=partialRectangle;connectable=0;fillColor=none;top=0;left=0;bottom=0;right=0;editable=1;overflow=hidden;whiteSpace=wrap;html=1;" parent="7fP72__fb8I-MQEqWGat-27" vertex="1">
          <mxGeometry width="30" height="29" as="geometry">
            <mxRectangle width="30" height="29" as="alternateBounds" />
          </mxGeometry>
        </mxCell>
        <mxCell id="7fP72__fb8I-MQEqWGat-29" value="Time que fez mais gols" style="shape=partialRectangle;connectable=0;fillColor=none;top=0;left=0;bottom=0;right=0;align=left;spacingLeft=6;overflow=hidden;whiteSpace=wrap;html=1;" parent="7fP72__fb8I-MQEqWGat-27" vertex="1">
          <mxGeometry x="30" width="180" height="29" as="geometry">
            <mxRectangle width="180" height="29" as="alternateBounds" />
          </mxGeometry>
        </mxCell>
        <mxCell id="7fP72__fb8I-MQEqWGat-52" value="Jogo" style="shape=table;startSize=34;container=1;collapsible=1;childLayout=tableLayout;fixedRows=1;rowLines=0;fontStyle=1;align=center;resizeLast=1;html=1;whiteSpace=wrap;" parent="1" vertex="1">
          <mxGeometry x="-10" y="990" width="290" height="318" as="geometry" />
        </mxCell>
        <mxCell id="7fP72__fb8I-MQEqWGat-53" value="" style="shape=tableRow;horizontal=0;startSize=0;swimlaneHead=0;swimlaneBody=0;fillColor=none;collapsible=0;dropTarget=0;points=[[0,0.5],[1,0.5]];portConstraint=eastwest;top=0;left=0;right=0;bottom=0;html=1;" parent="7fP72__fb8I-MQEqWGat-52" vertex="1">
          <mxGeometry y="34" width="290" height="36" as="geometry" />
        </mxCell>
        <mxCell id="7fP72__fb8I-MQEqWGat-54" value="PK" style="shape=partialRectangle;connectable=0;fillColor=none;top=0;left=0;bottom=0;right=0;fontStyle=1;overflow=hidden;html=1;whiteSpace=wrap;" parent="7fP72__fb8I-MQEqWGat-53" vertex="1">
          <mxGeometry width="60" height="36" as="geometry">
            <mxRectangle width="60" height="36" as="alternateBounds" />
          </mxGeometry>
        </mxCell>
        <mxCell id="7fP72__fb8I-MQEqWGat-55" value="Partida" style="shape=partialRectangle;connectable=0;fillColor=none;top=0;left=0;bottom=0;right=0;align=left;spacingLeft=6;fontStyle=5;overflow=hidden;html=1;whiteSpace=wrap;" parent="7fP72__fb8I-MQEqWGat-53" vertex="1">
          <mxGeometry x="60" width="230" height="36" as="geometry">
            <mxRectangle width="230" height="36" as="alternateBounds" />
          </mxGeometry>
        </mxCell>
        <mxCell id="7fP72__fb8I-MQEqWGat-56" value="" style="shape=tableRow;horizontal=0;startSize=0;swimlaneHead=0;swimlaneBody=0;fillColor=none;collapsible=0;dropTarget=0;points=[[0,0.5],[1,0.5]];portConstraint=eastwest;top=0;left=0;right=0;bottom=1;html=1;" parent="7fP72__fb8I-MQEqWGat-52" vertex="1">
          <mxGeometry y="70" width="290" height="20" as="geometry" />
        </mxCell>
        <mxCell id="7fP72__fb8I-MQEqWGat-57" value="" style="shape=partialRectangle;connectable=0;fillColor=none;top=0;left=0;bottom=0;right=0;fontStyle=1;overflow=hidden;html=1;whiteSpace=wrap;" parent="7fP72__fb8I-MQEqWGat-56" vertex="1">
          <mxGeometry width="60" height="20" as="geometry">
            <mxRectangle width="60" height="20" as="alternateBounds" />
          </mxGeometry>
        </mxCell>
        <mxCell id="7fP72__fb8I-MQEqWGat-58" value="" style="shape=partialRectangle;connectable=0;fillColor=none;top=0;left=0;bottom=0;right=0;align=left;spacingLeft=6;fontStyle=5;overflow=hidden;html=1;whiteSpace=wrap;" parent="7fP72__fb8I-MQEqWGat-56" vertex="1">
          <mxGeometry x="60" width="230" height="20" as="geometry">
            <mxRectangle width="230" height="20" as="alternateBounds" />
          </mxGeometry>
        </mxCell>
        <mxCell id="7fP72__fb8I-MQEqWGat-59" value="" style="shape=tableRow;horizontal=0;startSize=0;swimlaneHead=0;swimlaneBody=0;fillColor=none;collapsible=0;dropTarget=0;points=[[0,0.5],[1,0.5]];portConstraint=eastwest;top=0;left=0;right=0;bottom=0;html=1;" parent="7fP72__fb8I-MQEqWGat-52" vertex="1">
          <mxGeometry y="90" width="290" height="30" as="geometry" />
        </mxCell>
        <mxCell id="7fP72__fb8I-MQEqWGat-60" value="" style="shape=partialRectangle;connectable=0;fillColor=none;top=0;left=0;bottom=0;right=0;editable=1;overflow=hidden;html=1;whiteSpace=wrap;" parent="7fP72__fb8I-MQEqWGat-59" vertex="1">
          <mxGeometry width="60" height="30" as="geometry">
            <mxRectangle width="60" height="30" as="alternateBounds" />
          </mxGeometry>
        </mxCell>
        <mxCell id="7fP72__fb8I-MQEqWGat-61" value="Gols Time Casa" style="shape=partialRectangle;connectable=0;fillColor=none;top=0;left=0;bottom=0;right=0;align=left;spacingLeft=6;overflow=hidden;html=1;whiteSpace=wrap;" parent="7fP72__fb8I-MQEqWGat-59" vertex="1">
          <mxGeometry x="60" width="230" height="30" as="geometry">
            <mxRectangle width="230" height="30" as="alternateBounds" />
          </mxGeometry>
        </mxCell>
        <mxCell id="7fP72__fb8I-MQEqWGat-62" value="" style="shape=tableRow;horizontal=0;startSize=0;swimlaneHead=0;swimlaneBody=0;fillColor=none;collapsible=0;dropTarget=0;points=[[0,0.5],[1,0.5]];portConstraint=eastwest;top=0;left=0;right=0;bottom=0;html=1;" parent="7fP72__fb8I-MQEqWGat-52" vertex="1">
          <mxGeometry y="120" width="290" height="26" as="geometry" />
        </mxCell>
        <mxCell id="7fP72__fb8I-MQEqWGat-63" value="" style="shape=partialRectangle;connectable=0;fillColor=none;top=0;left=0;bottom=0;right=0;editable=1;overflow=hidden;html=1;whiteSpace=wrap;" parent="7fP72__fb8I-MQEqWGat-62" vertex="1">
          <mxGeometry width="60" height="26" as="geometry">
            <mxRectangle width="60" height="26" as="alternateBounds" />
          </mxGeometry>
        </mxCell>
        <mxCell id="7fP72__fb8I-MQEqWGat-64" value="Gols Time Visitante" style="shape=partialRectangle;connectable=0;fillColor=none;top=0;left=0;bottom=0;right=0;align=left;spacingLeft=6;overflow=hidden;html=1;whiteSpace=wrap;" parent="7fP72__fb8I-MQEqWGat-62" vertex="1">
          <mxGeometry x="60" width="230" height="26" as="geometry">
            <mxRectangle width="230" height="26" as="alternateBounds" />
          </mxGeometry>
        </mxCell>
        <mxCell id="4my753jydMD6D_Fe-w93-1" style="shape=tableRow;horizontal=0;startSize=0;swimlaneHead=0;swimlaneBody=0;fillColor=none;collapsible=0;dropTarget=0;points=[[0,0.5],[1,0.5]];portConstraint=eastwest;top=0;left=0;right=0;bottom=0;html=1;" parent="7fP72__fb8I-MQEqWGat-52" vertex="1">
          <mxGeometry y="146" width="290" height="40" as="geometry" />
        </mxCell>
        <mxCell id="4my753jydMD6D_Fe-w93-2" style="shape=partialRectangle;connectable=0;fillColor=none;top=0;left=0;bottom=0;right=0;editable=1;overflow=hidden;html=1;whiteSpace=wrap;" parent="4my753jydMD6D_Fe-w93-1" vertex="1">
          <mxGeometry width="60" height="40" as="geometry">
            <mxRectangle width="60" height="40" as="alternateBounds" />
          </mxGeometry>
        </mxCell>
        <mxCell id="4my753jydMD6D_Fe-w93-3" value="Total de Gols" style="shape=partialRectangle;connectable=0;fillColor=none;top=0;left=0;bottom=0;right=0;align=left;spacingLeft=6;overflow=hidden;html=1;whiteSpace=wrap;" parent="4my753jydMD6D_Fe-w93-1" vertex="1">
          <mxGeometry x="60" width="230" height="40" as="geometry">
            <mxRectangle width="230" height="40" as="alternateBounds" />
          </mxGeometry>
        </mxCell>
        <mxCell id="m8XkgOcHn2Fhn5VSv-pF-39" style="shape=tableRow;horizontal=0;startSize=0;swimlaneHead=0;swimlaneBody=0;fillColor=none;collapsible=0;dropTarget=0;points=[[0,0.5],[1,0.5]];portConstraint=eastwest;top=0;left=0;right=0;bottom=0;html=1;" parent="7fP72__fb8I-MQEqWGat-52" vertex="1">
          <mxGeometry y="186" width="290" height="40" as="geometry" />
        </mxCell>
        <mxCell id="m8XkgOcHn2Fhn5VSv-pF-40" style="shape=partialRectangle;connectable=0;fillColor=none;top=0;left=0;bottom=0;right=0;editable=1;overflow=hidden;html=1;whiteSpace=wrap;" parent="m8XkgOcHn2Fhn5VSv-pF-39" vertex="1">
          <mxGeometry width="60" height="40" as="geometry">
            <mxRectangle width="60" height="40" as="alternateBounds" />
          </mxGeometry>
        </mxCell>
        <mxCell id="m8XkgOcHn2Fhn5VSv-pF-41" value="Status Final Rodada" style="shape=partialRectangle;connectable=0;fillColor=none;top=0;left=0;bottom=0;right=0;align=left;spacingLeft=6;overflow=hidden;html=1;whiteSpace=wrap;" parent="m8XkgOcHn2Fhn5VSv-pF-39" vertex="1">
          <mxGeometry x="60" width="230" height="40" as="geometry">
            <mxRectangle width="230" height="40" as="alternateBounds" />
          </mxGeometry>
        </mxCell>
        <mxCell id="4my753jydMD6D_Fe-w93-40" value="" style="shape=tableRow;horizontal=0;startSize=0;swimlaneHead=0;swimlaneBody=0;fillColor=none;collapsible=0;dropTarget=0;points=[[0,0.5],[1,0.5]];portConstraint=eastwest;top=0;left=0;right=0;bottom=0;" parent="7fP72__fb8I-MQEqWGat-52" vertex="1">
          <mxGeometry y="226" width="290" height="32" as="geometry" />
        </mxCell>
        <mxCell id="4my753jydMD6D_Fe-w93-41" value="FK" style="shape=partialRectangle;connectable=0;fillColor=none;top=0;left=0;bottom=0;right=0;fontStyle=0;overflow=hidden;whiteSpace=wrap;html=1;" parent="4my753jydMD6D_Fe-w93-40" vertex="1">
          <mxGeometry width="60" height="32" as="geometry">
            <mxRectangle width="60" height="32" as="alternateBounds" />
          </mxGeometry>
        </mxCell>
        <mxCell id="4my753jydMD6D_Fe-w93-42" value="Nome Time Mandante" style="shape=partialRectangle;connectable=0;fillColor=none;top=0;left=0;bottom=0;right=0;align=left;spacingLeft=6;fontStyle=0;overflow=hidden;whiteSpace=wrap;html=1;" parent="4my753jydMD6D_Fe-w93-40" vertex="1">
          <mxGeometry x="60" width="230" height="32" as="geometry">
            <mxRectangle width="230" height="32" as="alternateBounds" />
          </mxGeometry>
        </mxCell>
        <mxCell id="4my753jydMD6D_Fe-w93-47" style="shape=tableRow;horizontal=0;startSize=0;swimlaneHead=0;swimlaneBody=0;fillColor=none;collapsible=0;dropTarget=0;points=[[0,0.5],[1,0.5]];portConstraint=eastwest;top=0;left=0;right=0;bottom=0;" parent="7fP72__fb8I-MQEqWGat-52" vertex="1">
          <mxGeometry y="258" width="290" height="30" as="geometry" />
        </mxCell>
        <mxCell id="4my753jydMD6D_Fe-w93-48" style="shape=partialRectangle;connectable=0;fillColor=none;top=0;left=0;bottom=0;right=0;fontStyle=0;overflow=hidden;whiteSpace=wrap;html=1;" parent="4my753jydMD6D_Fe-w93-47" vertex="1">
          <mxGeometry width="60" height="30" as="geometry">
            <mxRectangle width="60" height="30" as="alternateBounds" />
          </mxGeometry>
        </mxCell>
        <mxCell id="4my753jydMD6D_Fe-w93-49" value="Nome Time Visitante" style="shape=partialRectangle;connectable=0;fillColor=none;top=0;left=0;bottom=0;right=0;align=left;spacingLeft=6;fontStyle=0;overflow=hidden;whiteSpace=wrap;html=1;" parent="4my753jydMD6D_Fe-w93-47" vertex="1">
          <mxGeometry x="60" width="230" height="30" as="geometry">
            <mxRectangle width="230" height="30" as="alternateBounds" />
          </mxGeometry>
        </mxCell>
        <mxCell id="m8XkgOcHn2Fhn5VSv-pF-42" style="shape=tableRow;horizontal=0;startSize=0;swimlaneHead=0;swimlaneBody=0;fillColor=none;collapsible=0;dropTarget=0;points=[[0,0.5],[1,0.5]];portConstraint=eastwest;top=0;left=0;right=0;bottom=0;" parent="7fP72__fb8I-MQEqWGat-52" vertex="1">
          <mxGeometry y="288" width="290" height="30" as="geometry" />
        </mxCell>
        <mxCell id="m8XkgOcHn2Fhn5VSv-pF-43" style="shape=partialRectangle;connectable=0;fillColor=none;top=0;left=0;bottom=0;right=0;fontStyle=0;overflow=hidden;whiteSpace=wrap;html=1;" parent="m8XkgOcHn2Fhn5VSv-pF-42" vertex="1">
          <mxGeometry width="60" height="30" as="geometry">
            <mxRectangle width="60" height="30" as="alternateBounds" />
          </mxGeometry>
        </mxCell>
        <mxCell id="m8XkgOcHn2Fhn5VSv-pF-44" style="shape=partialRectangle;connectable=0;fillColor=none;top=0;left=0;bottom=0;right=0;align=left;spacingLeft=6;fontStyle=0;overflow=hidden;whiteSpace=wrap;html=1;" parent="m8XkgOcHn2Fhn5VSv-pF-42" vertex="1">
          <mxGeometry x="60" width="230" height="30" as="geometry">
            <mxRectangle width="230" height="30" as="alternateBounds" />
          </mxGeometry>
        </mxCell>
        <mxCell id="4my753jydMD6D_Fe-w93-8" value="&lt;u&gt;Partida&lt;/u&gt;" style="ellipse;whiteSpace=wrap;html=1;" parent="1" vertex="1">
          <mxGeometry x="-154" y="-174" width="90" height="40" as="geometry" />
        </mxCell>
        <mxCell id="-k1p4NH_bwV_vG6aE-CP-10" value="" style="edgeStyle=orthogonalEdgeStyle;rounded=0;orthogonalLoop=1;jettySize=auto;html=1;exitX=0.5;exitY=1;exitDx=0;exitDy=0;endArrow=none;endFill=0;" parent="1" source="m8XkgOcHn2Fhn5VSv-pF-35" target="m8XkgOcHn2Fhn5VSv-pF-36" edge="1">
          <mxGeometry relative="1" as="geometry" />
        </mxCell>
        <mxCell id="-k1p4NH_bwV_vG6aE-CP-12" value="" style="edgeStyle=orthogonalEdgeStyle;rounded=0;orthogonalLoop=1;jettySize=auto;html=1;endArrow=none;endFill=0;" parent="1" source="4my753jydMD6D_Fe-w93-33" target="IoURBYvWbgCN-et8Zjcs-40" edge="1">
          <mxGeometry relative="1" as="geometry" />
        </mxCell>
        <mxCell id="4my753jydMD6D_Fe-w93-33" value="Ano" style="ellipse;whiteSpace=wrap;html=1;" parent="1" vertex="1">
          <mxGeometry x="-472" y="90" width="82" height="35" as="geometry" />
        </mxCell>
        <mxCell id="4my753jydMD6D_Fe-w93-50" value="FK" style="shape=partialRectangle;connectable=0;fillColor=none;top=0;left=0;bottom=0;right=0;fontStyle=0;overflow=hidden;whiteSpace=wrap;html=1;" parent="1" vertex="1">
          <mxGeometry x="-10" y="1246" width="60" height="30" as="geometry">
            <mxRectangle width="60" height="30" as="alternateBounds" />
          </mxGeometry>
        </mxCell>
        <mxCell id="4my753jydMD6D_Fe-w93-51" style="edgeStyle=orthogonalEdgeStyle;rounded=0;orthogonalLoop=1;jettySize=auto;html=1;exitX=0;exitY=0.5;exitDx=0;exitDy=0;" parent="1" source="4my753jydMD6D_Fe-w93-40" target="7fP72__fb8I-MQEqWGat-5" edge="1">
          <mxGeometry relative="1" as="geometry" />
        </mxCell>
        <mxCell id="4my753jydMD6D_Fe-w93-52" style="edgeStyle=orthogonalEdgeStyle;rounded=0;orthogonalLoop=1;jettySize=auto;html=1;" parent="1" target="7fP72__fb8I-MQEqWGat-18" edge="1">
          <mxGeometry relative="1" as="geometry">
            <mxPoint x="280" y="1296" as="sourcePoint" />
            <Array as="points">
              <mxPoint x="280" y="1296" />
              <mxPoint x="310" y="1296" />
              <mxPoint x="310" y="1329" />
            </Array>
          </mxGeometry>
        </mxCell>
        <mxCell id="4my753jydMD6D_Fe-w93-59" value="Time Vencedor" style="shape=partialRectangle;connectable=0;fillColor=none;top=0;left=0;bottom=0;right=0;align=left;spacingLeft=6;overflow=hidden;whiteSpace=wrap;html=1;" parent="1" vertex="1">
          <mxGeometry x="370" y="1404" width="180" height="30" as="geometry">
            <mxRectangle width="180" height="30" as="alternateBounds" />
          </mxGeometry>
        </mxCell>
        <mxCell id="-k1p4NH_bwV_vG6aE-CP-23" value="" style="edgeStyle=orthogonalEdgeStyle;rounded=0;orthogonalLoop=1;jettySize=auto;html=1;endArrow=none;endFill=0;" parent="1" source="m8XkgOcHn2Fhn5VSv-pF-19" target="7fP72__fb8I-MQEqWGat-3" edge="1">
          <mxGeometry relative="1" as="geometry">
            <Array as="points">
              <mxPoint x="245" y="50" />
              <mxPoint x="150" y="50" />
            </Array>
          </mxGeometry>
        </mxCell>
        <mxCell id="-k1p4NH_bwV_vG6aE-CP-26" value="1" style="edgeLabel;html=1;align=center;verticalAlign=middle;resizable=0;points=[];" parent="-k1p4NH_bwV_vG6aE-CP-23" vertex="1" connectable="0">
          <mxGeometry x="-0.1451" y="-2" relative="1" as="geometry">
            <mxPoint as="offset" />
          </mxGeometry>
        </mxCell>
        <mxCell id="-k1p4NH_bwV_vG6aE-CP-31" value="" style="edgeStyle=orthogonalEdgeStyle;rounded=0;orthogonalLoop=1;jettySize=auto;html=1;endArrow=none;endFill=0;entryX=0.5;entryY=1;entryDx=0;entryDy=0;exitX=0.5;exitY=1;exitDx=0;exitDy=0;" parent="1" source="m8XkgOcHn2Fhn5VSv-pF-19" target="m8XkgOcHn2Fhn5VSv-pF-23" edge="1">
          <mxGeometry relative="1" as="geometry">
            <mxPoint x="245" y="219" as="sourcePoint" />
            <mxPoint x="-50" y="20" as="targetPoint" />
            <Array as="points">
              <mxPoint x="245" y="350" />
              <mxPoint x="-49" y="350" />
            </Array>
          </mxGeometry>
        </mxCell>
        <mxCell id="-k1p4NH_bwV_vG6aE-CP-35" value="n" style="edgeLabel;html=1;align=center;verticalAlign=middle;resizable=0;points=[];" parent="-k1p4NH_bwV_vG6aE-CP-31" vertex="1" connectable="0">
          <mxGeometry x="0.7161" y="-1" relative="1" as="geometry">
            <mxPoint as="offset" />
          </mxGeometry>
        </mxCell>
        <mxCell id="m8XkgOcHn2Fhn5VSv-pF-19" value="jogo em casa" style="rhombus;whiteSpace=wrap;html=1;" parent="1" vertex="1">
          <mxGeometry x="190" y="107" width="110" height="102" as="geometry" />
        </mxCell>
        <mxCell id="-k1p4NH_bwV_vG6aE-CP-33" value="" style="edgeStyle=orthogonalEdgeStyle;rounded=0;orthogonalLoop=1;jettySize=auto;html=1;endArrow=none;endFill=0;entryX=0.2;entryY=0.98;entryDx=0;entryDy=0;entryPerimeter=0;" parent="1" source="m8XkgOcHn2Fhn5VSv-pF-20" target="m8XkgOcHn2Fhn5VSv-pF-23" edge="1">
          <mxGeometry relative="1" as="geometry">
            <mxPoint x="45" y="297" as="targetPoint" />
            <Array as="points">
              <mxPoint x="45" y="270" />
              <mxPoint x="-30" y="270" />
              <mxPoint x="-30" y="9" />
            </Array>
          </mxGeometry>
        </mxCell>
        <mxCell id="-k1p4NH_bwV_vG6aE-CP-36" value="n" style="edgeLabel;html=1;align=center;verticalAlign=middle;resizable=0;points=[];" parent="-k1p4NH_bwV_vG6aE-CP-33" vertex="1" connectable="0">
          <mxGeometry x="-0.6196" y="2" relative="1" as="geometry">
            <mxPoint as="offset" />
          </mxGeometry>
        </mxCell>
        <mxCell id="m8XkgOcHn2Fhn5VSv-pF-20" value="Visitante&amp;nbsp;" style="rhombus;whiteSpace=wrap;html=1;" parent="1" vertex="1">
          <mxGeometry x="-10" y="112.5" width="110" height="100" as="geometry" />
        </mxCell>
        <mxCell id="m8XkgOcHn2Fhn5VSv-pF-31" style="edgeStyle=orthogonalEdgeStyle;rounded=0;orthogonalLoop=1;jettySize=auto;html=1;exitX=1;exitY=0.5;exitDx=0;exitDy=0;endArrow=none;endFill=0;entryX=0.5;entryY=1;entryDx=0;entryDy=0;" parent="1" target="4my753jydMD6D_Fe-w93-8" edge="1">
          <mxGeometry relative="1" as="geometry">
            <mxPoint x="-45" y="-40" as="sourcePoint" />
            <mxPoint x="-130" y="-165.89830846845894" as="targetPoint" />
            <Array as="points">
              <mxPoint x="-45" y="-95" />
              <mxPoint x="-130" y="-95" />
              <mxPoint x="-130" y="-134" />
            </Array>
          </mxGeometry>
        </mxCell>
        <mxCell id="-k1p4NH_bwV_vG6aE-CP-21" value="" style="edgeStyle=orthogonalEdgeStyle;rounded=0;orthogonalLoop=1;jettySize=auto;html=1;endArrow=none;endFill=0;" parent="1" source="m8XkgOcHn2Fhn5VSv-pF-23" target="7fP72__fb8I-MQEqWGat-3" edge="1">
          <mxGeometry relative="1" as="geometry" />
        </mxCell>
        <mxCell id="-k1p4NH_bwV_vG6aE-CP-22" value="n" style="edgeLabel;html=1;align=center;verticalAlign=middle;resizable=0;points=[];" parent="-k1p4NH_bwV_vG6aE-CP-21" vertex="1" connectable="0">
          <mxGeometry x="-0.1111" y="1" relative="1" as="geometry">
            <mxPoint as="offset" />
          </mxGeometry>
        </mxCell>
        <mxCell id="m8XkgOcHn2Fhn5VSv-pF-23" value="Jogo" style="whiteSpace=wrap;html=1;align=center;" parent="1" vertex="1">
          <mxGeometry x="-110" y="-40" width="120" height="50" as="geometry" />
        </mxCell>
        <mxCell id="m8XkgOcHn2Fhn5VSv-pF-32" value="Total de Gols" style="ellipse;whiteSpace=wrap;html=1;align=center;dashed=1;" parent="1" vertex="1">
          <mxGeometry x="438" y="996" width="93" height="40" as="geometry" />
        </mxCell>
        <mxCell id="m8XkgOcHn2Fhn5VSv-pF-34" value="Resultado do jogo" style="ellipse;whiteSpace=wrap;html=1;" parent="1" vertex="1">
          <mxGeometry x="118" y="-177" width="92" height="46" as="geometry" />
        </mxCell>
        <mxCell id="m8XkgOcHn2Fhn5VSv-pF-35" value="vencedor" style="ellipse;whiteSpace=wrap;html=1;align=center;" parent="1" vertex="1">
          <mxGeometry x="-590" y="142.5" width="94" height="40" as="geometry" />
        </mxCell>
        <mxCell id="-k1p4NH_bwV_vG6aE-CP-8" value="" style="edgeStyle=orthogonalEdgeStyle;rounded=0;orthogonalLoop=1;jettySize=auto;html=1;endArrow=none;endFill=0;" parent="1" source="m8XkgOcHn2Fhn5VSv-pF-36" target="m8XkgOcHn2Fhn5VSv-pF-37" edge="1">
          <mxGeometry relative="1" as="geometry" />
        </mxCell>
        <mxCell id="-k1p4NH_bwV_vG6aE-CP-9" value="" style="edgeStyle=orthogonalEdgeStyle;rounded=0;orthogonalLoop=1;jettySize=auto;html=1;endArrow=none;endFill=0;exitX=0.5;exitY=1;exitDx=0;exitDy=0;" parent="1" source="4my753jydMD6D_Fe-w93-17" target="m8XkgOcHn2Fhn5VSv-pF-35" edge="1">
          <mxGeometry relative="1" as="geometry">
            <mxPoint x="-430" y="160" as="sourcePoint" />
            <Array as="points">
              <mxPoint x="-430" y="153" />
              <mxPoint x="-430" y="163" />
            </Array>
          </mxGeometry>
        </mxCell>
        <mxCell id="m8XkgOcHn2Fhn5VSv-pF-36" value="Time fez mais gols" style="ellipse;whiteSpace=wrap;html=1;align=center;" parent="1" vertex="1">
          <mxGeometry x="-588" y="190" width="90" height="48" as="geometry" />
        </mxCell>
        <mxCell id="-k1p4NH_bwV_vG6aE-CP-3" value="" style="edgeStyle=orthogonalEdgeStyle;rounded=0;orthogonalLoop=1;jettySize=auto;html=1;endArrow=none;endFill=0;" parent="1" source="m8XkgOcHn2Fhn5VSv-pF-37" target="-k1p4NH_bwV_vG6aE-CP-2" edge="1">
          <mxGeometry relative="1" as="geometry" />
        </mxCell>
        <mxCell id="m8XkgOcHn2Fhn5VSv-pF-37" value="Time tomou mais gols" style="ellipse;whiteSpace=wrap;html=1;align=center;" parent="1" vertex="1">
          <mxGeometry x="-591" y="250" width="93" height="48" as="geometry" />
        </mxCell>
        <mxCell id="m8XkgOcHn2Fhn5VSv-pF-46" value="" style="shape=tableRow;horizontal=0;startSize=0;swimlaneHead=0;swimlaneBody=0;fillColor=none;collapsible=0;dropTarget=0;points=[[0,0.5],[1,0.5]];portConstraint=eastwest;top=0;left=0;right=0;bottom=0;" parent="1" vertex="1">
          <mxGeometry x="-30" y="1326" width="290" height="32" as="geometry" />
        </mxCell>
        <mxCell id="m8XkgOcHn2Fhn5VSv-pF-48" value="ID Campeonato" style="shape=partialRectangle;connectable=0;fillColor=none;top=0;left=0;bottom=0;right=0;align=left;spacingLeft=6;fontStyle=0;overflow=hidden;whiteSpace=wrap;html=1;direction=south;" parent="1" vertex="1">
          <mxGeometry x="50" y="1276" width="151" height="42" as="geometry">
            <mxRectangle width="230" height="32" as="alternateBounds" />
          </mxGeometry>
        </mxCell>
        <mxCell id="m8XkgOcHn2Fhn5VSv-pF-47" value="FK" style="shape=partialRectangle;connectable=0;fillColor=none;top=0;left=0;bottom=0;right=0;fontStyle=0;overflow=hidden;whiteSpace=wrap;html=1;" parent="1" vertex="1">
          <mxGeometry x="-10" y="1276" width="60" height="32" as="geometry">
            <mxRectangle width="60" height="32" as="alternateBounds" />
          </mxGeometry>
        </mxCell>
        <mxCell id="m8XkgOcHn2Fhn5VSv-pF-49" style="edgeStyle=orthogonalEdgeStyle;rounded=0;orthogonalLoop=1;jettySize=auto;html=1;" parent="1" edge="1">
          <mxGeometry relative="1" as="geometry">
            <mxPoint x="-10" y="1266" as="sourcePoint" />
            <mxPoint x="-70" y="1328.5" as="targetPoint" />
            <Array as="points">
              <mxPoint x="-40" y="1266" />
              <mxPoint x="-40" y="1329" />
            </Array>
          </mxGeometry>
        </mxCell>
        <mxCell id="-k1p4NH_bwV_vG6aE-CP-1" value="&lt;div style=&quot;text-align: justify; font-size: 14px;&quot;&gt;&lt;span style=&quot;background-color: initial;&quot;&gt;&lt;font style=&quot;font-size: 14px;&quot;&gt;Já criei a tabela campeonato, porque no final de tudo&amp;nbsp;&lt;/font&gt;&lt;/span&gt;&lt;/div&gt;&lt;div style=&quot;text-align: justify; font-size: 14px;&quot;&gt;&lt;font style=&quot;font-size: 14px;&quot;&gt;ela quem mostrará os resultados&amp;nbsp;&lt;/font&gt;&lt;/div&gt;" style="text;html=1;align=center;verticalAlign=middle;resizable=0;points=[];autosize=1;strokeColor=none;fillColor=none;" parent="1" vertex="1">
          <mxGeometry x="-590" y="-190" width="360" height="50" as="geometry" />
        </mxCell>
        <mxCell id="-k1p4NH_bwV_vG6aE-CP-5" value="" style="edgeStyle=orthogonalEdgeStyle;rounded=0;orthogonalLoop=1;jettySize=auto;html=1;endArrow=none;endFill=0;" parent="1" source="-k1p4NH_bwV_vG6aE-CP-2" target="-k1p4NH_bwV_vG6aE-CP-4" edge="1">
          <mxGeometry relative="1" as="geometry" />
        </mxCell>
        <mxCell id="-k1p4NH_bwV_vG6aE-CP-2" value="Jogo c/ mais gols" style="ellipse;whiteSpace=wrap;html=1;align=center;" parent="1" vertex="1">
          <mxGeometry x="-588" y="310" width="93" height="48" as="geometry" />
        </mxCell>
        <mxCell id="-k1p4NH_bwV_vG6aE-CP-7" value="" style="edgeStyle=orthogonalEdgeStyle;rounded=0;orthogonalLoop=1;jettySize=auto;html=1;endArrow=none;endFill=0;" parent="1" source="-k1p4NH_bwV_vG6aE-CP-4" target="-k1p4NH_bwV_vG6aE-CP-6" edge="1">
          <mxGeometry relative="1" as="geometry" />
        </mxCell>
        <mxCell id="-k1p4NH_bwV_vG6aE-CP-4" value="" style="ellipse;whiteSpace=wrap;html=1;align=center;" parent="1" vertex="1">
          <mxGeometry x="-588" y="370" width="93" height="48" as="geometry" />
        </mxCell>
        <mxCell id="-k1p4NH_bwV_vG6aE-CP-6" value="Time c/ mais gols no mesmo jogo" style="ellipse;whiteSpace=wrap;html=1;align=center;" parent="1" vertex="1">
          <mxGeometry x="-593.25" y="430" width="100.5" height="54" as="geometry" />
        </mxCell>
        <mxCell id="-k1p4NH_bwV_vG6aE-CP-13" value="" style="edgeStyle=orthogonalEdgeStyle;rounded=0;orthogonalLoop=1;jettySize=auto;html=1;endArrow=none;endFill=0;" parent="1" source="4my753jydMD6D_Fe-w93-33" target="4my753jydMD6D_Fe-w93-17" edge="1">
          <mxGeometry relative="1" as="geometry">
            <mxPoint x="-350" y="125" as="sourcePoint" />
            <mxPoint x="-354" y="283" as="targetPoint" />
            <Array as="points" />
          </mxGeometry>
        </mxCell>
        <mxCell id="4my753jydMD6D_Fe-w93-17" value="NOME" style="ellipse;whiteSpace=wrap;html=1;" parent="1" vertex="1">
          <mxGeometry x="-471" y="140" width="82" height="33" as="geometry" />
        </mxCell>
        <mxCell id="-k1p4NH_bwV_vG6aE-CP-18" value="" style="endArrow=none;html=1;rounded=0;entryX=0;entryY=0.75;entryDx=0;entryDy=0;exitX=1.007;exitY=0.44;exitDx=0;exitDy=0;exitPerimeter=0;edgeStyle=orthogonalEdgeStyle;" parent="1" source="Jo0naE-_vCHYN8LqwO7P-1" target="m8XkgOcHn2Fhn5VSv-pF-23" edge="1">
          <mxGeometry width="50" height="50" relative="1" as="geometry">
            <mxPoint x="-279" as="sourcePoint" />
            <mxPoint x="-229" y="-50" as="targetPoint" />
          </mxGeometry>
        </mxCell>
        <mxCell id="-k1p4NH_bwV_vG6aE-CP-19" value="1" style="edgeLabel;html=1;align=center;verticalAlign=middle;resizable=0;points=[];" parent="-k1p4NH_bwV_vG6aE-CP-18" vertex="1" connectable="0">
          <mxGeometry x="0.0531" y="2" relative="1" as="geometry">
            <mxPoint as="offset" />
          </mxGeometry>
        </mxCell>
        <mxCell id="-k1p4NH_bwV_vG6aE-CP-40" value="n" style="edgeLabel;html=1;align=center;verticalAlign=middle;resizable=0;points=[];" parent="-k1p4NH_bwV_vG6aE-CP-18" vertex="1" connectable="0">
          <mxGeometry x="0.0058" relative="1" as="geometry">
            <mxPoint x="1" as="offset" />
          </mxGeometry>
        </mxCell>
        <mxCell id="-k1p4NH_bwV_vG6aE-CP-39" style="edgeStyle=orthogonalEdgeStyle;rounded=0;orthogonalLoop=1;jettySize=auto;html=1;exitX=0.5;exitY=1;exitDx=0;exitDy=0;" parent="1" source="-k1p4NH_bwV_vG6aE-CP-4" target="-k1p4NH_bwV_vG6aE-CP-4" edge="1">
          <mxGeometry relative="1" as="geometry" />
        </mxCell>
      </root>
    </mxGraphModel>
  </diagram>
  <diagram id="QTP3RMUA2b5sZn7l2rQk" name="Modelo Logico orientado a objetos ">
    <mxGraphModel dx="1280" dy="1332" grid="1" gridSize="10" guides="1" tooltips="1" connect="1" arrows="1" fold="1" page="0" pageScale="1" pageWidth="827" pageHeight="1169" math="0" shadow="0">
      <root>
        <mxCell id="0" />
        <mxCell id="1" parent="0" />
        <mxCell id="yRT54x4Z4GlEFaCylAWL-23" value="Campeonato" style="shape=table;startSize=30;container=1;collapsible=1;childLayout=tableLayout;fixedRows=1;rowLines=0;fontStyle=1;align=center;resizeLast=1;html=1;" vertex="1" parent="1">
          <mxGeometry x="-230" y="-409" width="240" height="290" as="geometry" />
        </mxCell>
        <mxCell id="yRT54x4Z4GlEFaCylAWL-24" value="" style="shape=tableRow;horizontal=0;startSize=0;swimlaneHead=0;swimlaneBody=0;fillColor=none;collapsible=0;dropTarget=0;points=[[0,0.5],[1,0.5]];portConstraint=eastwest;top=0;left=0;right=0;bottom=1;" vertex="1" parent="yRT54x4Z4GlEFaCylAWL-23">
          <mxGeometry y="30" width="240" height="30" as="geometry" />
        </mxCell>
        <mxCell id="yRT54x4Z4GlEFaCylAWL-25" value="PK" style="shape=partialRectangle;connectable=0;fillColor=none;top=0;left=0;bottom=0;right=0;fontStyle=1;overflow=hidden;whiteSpace=wrap;html=1;" vertex="1" parent="yRT54x4Z4GlEFaCylAWL-24">
          <mxGeometry width="30" height="30" as="geometry">
            <mxRectangle width="30" height="30" as="alternateBounds" />
          </mxGeometry>
        </mxCell>
        <mxCell id="yRT54x4Z4GlEFaCylAWL-26" value="ID Campeonato" style="shape=partialRectangle;connectable=0;fillColor=none;top=0;left=0;bottom=0;right=0;align=left;spacingLeft=6;fontStyle=5;overflow=hidden;whiteSpace=wrap;html=1;" vertex="1" parent="yRT54x4Z4GlEFaCylAWL-24">
          <mxGeometry x="30" width="210" height="30" as="geometry">
            <mxRectangle width="210" height="30" as="alternateBounds" />
          </mxGeometry>
        </mxCell>
        <mxCell id="yRT54x4Z4GlEFaCylAWL-27" value="" style="shape=tableRow;horizontal=0;startSize=0;swimlaneHead=0;swimlaneBody=0;fillColor=none;collapsible=0;dropTarget=0;points=[[0,0.5],[1,0.5]];portConstraint=eastwest;top=0;left=0;right=0;bottom=0;" vertex="1" parent="yRT54x4Z4GlEFaCylAWL-23">
          <mxGeometry y="60" width="240" height="30" as="geometry" />
        </mxCell>
        <mxCell id="yRT54x4Z4GlEFaCylAWL-28" value="" style="shape=partialRectangle;connectable=0;fillColor=none;top=0;left=0;bottom=0;right=0;editable=1;overflow=hidden;whiteSpace=wrap;html=1;" vertex="1" parent="yRT54x4Z4GlEFaCylAWL-27">
          <mxGeometry width="30" height="30" as="geometry">
            <mxRectangle width="30" height="30" as="alternateBounds" />
          </mxGeometry>
        </mxCell>
        <mxCell id="yRT54x4Z4GlEFaCylAWL-29" value="Nome Campeonato" style="shape=partialRectangle;connectable=0;fillColor=none;top=0;left=0;bottom=0;right=0;align=left;spacingLeft=6;overflow=hidden;whiteSpace=wrap;html=1;spacingTop=1;" vertex="1" parent="yRT54x4Z4GlEFaCylAWL-27">
          <mxGeometry x="30" width="210" height="30" as="geometry">
            <mxRectangle width="210" height="30" as="alternateBounds" />
          </mxGeometry>
        </mxCell>
        <mxCell id="yRT54x4Z4GlEFaCylAWL-30" style="shape=tableRow;horizontal=0;startSize=0;swimlaneHead=0;swimlaneBody=0;fillColor=none;collapsible=0;dropTarget=0;points=[[0,0.5],[1,0.5]];portConstraint=eastwest;top=0;left=0;right=0;bottom=0;" vertex="1" parent="yRT54x4Z4GlEFaCylAWL-23">
          <mxGeometry y="90" width="240" height="29" as="geometry" />
        </mxCell>
        <mxCell id="yRT54x4Z4GlEFaCylAWL-31" style="shape=partialRectangle;connectable=0;fillColor=none;top=0;left=0;bottom=0;right=0;editable=1;overflow=hidden;whiteSpace=wrap;html=1;" vertex="1" parent="yRT54x4Z4GlEFaCylAWL-30">
          <mxGeometry width="30" height="29" as="geometry">
            <mxRectangle width="30" height="29" as="alternateBounds" />
          </mxGeometry>
        </mxCell>
        <mxCell id="yRT54x4Z4GlEFaCylAWL-32" value="Ano Campeonato" style="shape=partialRectangle;connectable=0;fillColor=none;top=0;left=0;bottom=0;right=0;align=left;spacingLeft=6;overflow=hidden;whiteSpace=wrap;html=1;" vertex="1" parent="yRT54x4Z4GlEFaCylAWL-30">
          <mxGeometry x="30" width="210" height="29" as="geometry">
            <mxRectangle width="210" height="29" as="alternateBounds" />
          </mxGeometry>
        </mxCell>
        <mxCell id="yRT54x4Z4GlEFaCylAWL-33" style="shape=tableRow;horizontal=0;startSize=0;swimlaneHead=0;swimlaneBody=0;fillColor=none;collapsible=0;dropTarget=0;points=[[0,0.5],[1,0.5]];portConstraint=eastwest;top=0;left=0;right=0;bottom=0;" vertex="1" parent="yRT54x4Z4GlEFaCylAWL-23">
          <mxGeometry y="119" width="240" height="30" as="geometry" />
        </mxCell>
        <mxCell id="yRT54x4Z4GlEFaCylAWL-34" value="" style="shape=partialRectangle;connectable=0;fillColor=none;top=0;left=0;bottom=0;right=0;editable=1;overflow=hidden;whiteSpace=wrap;html=1;" vertex="1" parent="yRT54x4Z4GlEFaCylAWL-33">
          <mxGeometry width="30" height="30" as="geometry">
            <mxRectangle width="30" height="30" as="alternateBounds" />
          </mxGeometry>
        </mxCell>
        <mxCell id="yRT54x4Z4GlEFaCylAWL-35" style="shape=partialRectangle;connectable=0;fillColor=none;top=0;left=0;bottom=0;right=0;align=left;spacingLeft=6;overflow=hidden;whiteSpace=wrap;html=1;" vertex="1" parent="yRT54x4Z4GlEFaCylAWL-33">
          <mxGeometry x="30" width="210" height="30" as="geometry">
            <mxRectangle width="210" height="30" as="alternateBounds" />
          </mxGeometry>
        </mxCell>
        <mxCell id="yRT54x4Z4GlEFaCylAWL-36" value="" style="shape=tableRow;horizontal=0;startSize=0;swimlaneHead=0;swimlaneBody=0;fillColor=none;collapsible=0;dropTarget=0;points=[[0,0.5],[1,0.5]];portConstraint=eastwest;top=0;left=0;right=0;bottom=0;" vertex="1" parent="yRT54x4Z4GlEFaCylAWL-23">
          <mxGeometry y="149" width="240" height="30" as="geometry" />
        </mxCell>
        <mxCell id="yRT54x4Z4GlEFaCylAWL-37" value="&lt;span style=&quot;white-space: pre;&quot;&gt; &lt;/span&gt;" style="shape=partialRectangle;connectable=0;fillColor=none;top=0;left=0;bottom=0;right=0;editable=1;overflow=hidden;whiteSpace=wrap;html=1;" vertex="1" parent="yRT54x4Z4GlEFaCylAWL-36">
          <mxGeometry width="30" height="30" as="geometry">
            <mxRectangle width="30" height="30" as="alternateBounds" />
          </mxGeometry>
        </mxCell>
        <mxCell id="yRT54x4Z4GlEFaCylAWL-38" value="&#xa;&lt;span style=&quot;color: rgb(240, 240, 240); font-family: Helvetica; font-size: 12px; font-style: normal; font-variant-ligatures: normal; font-variant-caps: normal; font-weight: 400; letter-spacing: normal; orphans: 2; text-align: left; text-indent: 0px; text-transform: none; widows: 2; word-spacing: 0px; -webkit-text-stroke-width: 0px; white-space: normal; background-color: rgb(24, 20, 29); text-decoration-thickness: initial; text-decoration-style: initial; text-decoration-color: initial; display: inline !important; float: none;&quot;&gt;Time que fez mais gols&lt;/span&gt;&#xa;&#xa;" style="shape=partialRectangle;connectable=0;fillColor=none;top=0;left=0;bottom=0;right=0;align=left;spacingLeft=9;overflow=hidden;whiteSpace=wrap;html=1;verticalAlign=middle;spacing=-3;spacingRight=-3;spacingBottom=2;" vertex="1" parent="yRT54x4Z4GlEFaCylAWL-36">
          <mxGeometry x="30" width="210" height="30" as="geometry">
            <mxRectangle width="210" height="30" as="alternateBounds" />
          </mxGeometry>
        </mxCell>
        <mxCell id="yRT54x4Z4GlEFaCylAWL-39" style="shape=tableRow;horizontal=0;startSize=0;swimlaneHead=0;swimlaneBody=0;fillColor=none;collapsible=0;dropTarget=0;points=[[0,0.5],[1,0.5]];portConstraint=eastwest;top=0;left=0;right=0;bottom=0;" vertex="1" parent="yRT54x4Z4GlEFaCylAWL-23">
          <mxGeometry y="179" width="240" height="29" as="geometry" />
        </mxCell>
        <mxCell id="yRT54x4Z4GlEFaCylAWL-40" style="shape=partialRectangle;connectable=0;fillColor=none;top=0;left=0;bottom=0;right=0;editable=1;overflow=hidden;whiteSpace=wrap;html=1;" vertex="1" parent="yRT54x4Z4GlEFaCylAWL-39">
          <mxGeometry width="30" height="29" as="geometry">
            <mxRectangle width="30" height="29" as="alternateBounds" />
          </mxGeometry>
        </mxCell>
        <mxCell id="yRT54x4Z4GlEFaCylAWL-41" value="&lt;span style=&quot;color: rgba(0, 0, 0, 0); font-family: monospace; font-size: 0px; text-wrap: nowrap;&quot;&gt;%3CmxGraphModel%3E%3Croot%3E%3CmxCell%20id%3D%220%22%2F%3E%3CmxCell%20id%3D%221%22%20parent%3D%220%22%2F%3E%3CmxCell%20id%3D%222%22%20value%3D%22%26lt%3Bspan%20style%3D%26quot%3Bcolor%3A%20rgb(240%2C%20240%2C%20240)%3B%20font-family%3A%20Helvetica%3B%20font-size%3A%2012px%3B%20font-style%3A%20normal%3B%20font-variant-ligatures%3A%20normal%3B%20font-variant-caps%3A%20normal%3B%20font-weight%3A%20400%3B%20letter-spacing%3A%20normal%3B%20orphans%3A%202%3B%20text-align%3A%20left%3B%20text-indent%3A%200px%3B%20text-transform%3A%20none%3B%20widows%3A%202%3B%20word-spacing%3A%200px%3B%20-webkit-text-stroke-width%3A%200px%3B%20white-space%3A%20normal%3B%20background-color%3A%20rgb(24%2C%2020%2C%2029)%3B%20text-decoration-thickness%3A%20initial%3B%20text-decoration-style%3A%20initial%3B%20text-decoration-color%3A%20initial%3B%20display%3A%20inline%20!important%3B%20float%3A%20none%3B%26quot%3B%26gt%3BTime%20que%20recebeu%20mais%20gols%26lt%3B%2Fspan%26gt%3B%22%20style%3D%22text%3BwhiteSpace%3Dwrap%3Bhtml%3D1%3BfontFamily%3DHelvetica%3BfontSize%3D12%3BfontColor%3Ddefault%3BlabelBackgroundColor%3Ddefault%3B%22%20vertex%3D%221%22%20parent%3D%221%22%3E%3CmxGeometry%20x%3D%22-80%22%20y%3D%22-20%22%20width%3D%22180%22%20height%3D%2240%22%20as%3D%22geometry%22%2F%3E%3C%2FmxCell%3E%3C%2Froot%3E%3C%2FmxGraphModel%3E&lt;/span&gt;" style="shape=partialRectangle;connectable=0;fillColor=none;top=0;left=0;bottom=0;right=0;align=left;spacingLeft=6;overflow=hidden;whiteSpace=wrap;html=1;" vertex="1" parent="yRT54x4Z4GlEFaCylAWL-39">
          <mxGeometry x="30" width="210" height="29" as="geometry">
            <mxRectangle width="210" height="29" as="alternateBounds" />
          </mxGeometry>
        </mxCell>
        <mxCell id="yRT54x4Z4GlEFaCylAWL-42" value="Time Vencedor" style="shape=partialRectangle;connectable=0;fillColor=none;top=0;left=0;bottom=0;right=0;align=left;spacingLeft=6;overflow=hidden;whiteSpace=wrap;html=1;spacingTop=-2;spacing=6;" vertex="1" parent="1">
          <mxGeometry x="-205" y="-289" width="180" height="30" as="geometry">
            <mxRectangle width="180" height="30" as="alternateBounds" />
          </mxGeometry>
        </mxCell>
        <mxCell id="yRT54x4Z4GlEFaCylAWL-43" value="Time" style="shape=table;startSize=30;container=1;collapsible=1;childLayout=tableLayout;fixedRows=1;rowLines=0;fontStyle=1;align=center;resizeLast=1;html=1;" vertex="1" parent="1">
          <mxGeometry x="460" y="-409" width="180" height="199" as="geometry">
            <mxRectangle x="460" y="-409" width="70" height="30" as="alternateBounds" />
          </mxGeometry>
        </mxCell>
        <mxCell id="yRT54x4Z4GlEFaCylAWL-44" value="" style="shape=tableRow;horizontal=0;startSize=0;swimlaneHead=0;swimlaneBody=0;fillColor=none;collapsible=0;dropTarget=0;points=[[0,0.5],[1,0.5]];portConstraint=eastwest;top=0;left=0;right=0;bottom=1;" vertex="1" parent="yRT54x4Z4GlEFaCylAWL-43">
          <mxGeometry y="30" width="180" height="30" as="geometry" />
        </mxCell>
        <mxCell id="yRT54x4Z4GlEFaCylAWL-45" value="PK" style="shape=partialRectangle;connectable=0;fillColor=none;top=0;left=0;bottom=0;right=0;fontStyle=1;overflow=hidden;whiteSpace=wrap;html=1;" vertex="1" parent="yRT54x4Z4GlEFaCylAWL-44">
          <mxGeometry width="30" height="30" as="geometry">
            <mxRectangle width="30" height="30" as="alternateBounds" />
          </mxGeometry>
        </mxCell>
        <mxCell id="yRT54x4Z4GlEFaCylAWL-46" value="Nome" style="shape=partialRectangle;connectable=0;fillColor=none;top=0;left=0;bottom=0;right=0;align=left;spacingLeft=6;fontStyle=5;overflow=hidden;whiteSpace=wrap;html=1;" vertex="1" parent="yRT54x4Z4GlEFaCylAWL-44">
          <mxGeometry x="30" width="150" height="30" as="geometry">
            <mxRectangle width="150" height="30" as="alternateBounds" />
          </mxGeometry>
        </mxCell>
        <mxCell id="yRT54x4Z4GlEFaCylAWL-47" style="shape=tableRow;horizontal=0;startSize=0;swimlaneHead=0;swimlaneBody=0;fillColor=none;collapsible=0;dropTarget=0;points=[[0,0.5],[1,0.5]];portConstraint=eastwest;top=0;left=0;right=0;bottom=0;" vertex="1" parent="yRT54x4Z4GlEFaCylAWL-43">
          <mxGeometry y="60" width="180" height="30" as="geometry" />
        </mxCell>
        <mxCell id="yRT54x4Z4GlEFaCylAWL-48" style="shape=partialRectangle;connectable=0;fillColor=none;top=0;left=0;bottom=0;right=0;editable=1;overflow=hidden;whiteSpace=wrap;html=1;" vertex="1" parent="yRT54x4Z4GlEFaCylAWL-47">
          <mxGeometry width="30" height="30" as="geometry">
            <mxRectangle width="30" height="30" as="alternateBounds" />
          </mxGeometry>
        </mxCell>
        <mxCell id="yRT54x4Z4GlEFaCylAWL-49" value="Apelido" style="shape=partialRectangle;connectable=0;fillColor=none;top=0;left=0;bottom=0;right=0;align=left;spacingLeft=6;overflow=hidden;whiteSpace=wrap;html=1;" vertex="1" parent="yRT54x4Z4GlEFaCylAWL-47">
          <mxGeometry x="30" width="150" height="30" as="geometry">
            <mxRectangle width="150" height="30" as="alternateBounds" />
          </mxGeometry>
        </mxCell>
        <mxCell id="yRT54x4Z4GlEFaCylAWL-50" value="" style="shape=tableRow;horizontal=0;startSize=0;swimlaneHead=0;swimlaneBody=0;fillColor=none;collapsible=0;dropTarget=0;points=[[0,0.5],[1,0.5]];portConstraint=eastwest;top=0;left=0;right=0;bottom=0;" vertex="1" parent="yRT54x4Z4GlEFaCylAWL-43">
          <mxGeometry y="90" width="180" height="30" as="geometry" />
        </mxCell>
        <mxCell id="yRT54x4Z4GlEFaCylAWL-51" value="" style="shape=partialRectangle;connectable=0;fillColor=none;top=0;left=0;bottom=0;right=0;editable=1;overflow=hidden;whiteSpace=wrap;html=1;" vertex="1" parent="yRT54x4Z4GlEFaCylAWL-50">
          <mxGeometry width="30" height="30" as="geometry">
            <mxRectangle width="30" height="30" as="alternateBounds" />
          </mxGeometry>
        </mxCell>
        <mxCell id="yRT54x4Z4GlEFaCylAWL-52" value="DataCriacao" style="shape=partialRectangle;connectable=0;fillColor=none;top=0;left=0;bottom=0;right=0;align=left;spacingLeft=6;overflow=hidden;whiteSpace=wrap;html=1;" vertex="1" parent="yRT54x4Z4GlEFaCylAWL-50">
          <mxGeometry x="30" width="150" height="30" as="geometry">
            <mxRectangle width="150" height="30" as="alternateBounds" />
          </mxGeometry>
        </mxCell>
        <mxCell id="yRT54x4Z4GlEFaCylAWL-53" value="" style="shape=tableRow;horizontal=0;startSize=0;swimlaneHead=0;swimlaneBody=0;fillColor=none;collapsible=0;dropTarget=0;points=[[0,0.5],[1,0.5]];portConstraint=eastwest;top=0;left=0;right=0;bottom=0;" vertex="1" parent="yRT54x4Z4GlEFaCylAWL-43">
          <mxGeometry y="120" width="180" height="30" as="geometry" />
        </mxCell>
        <mxCell id="yRT54x4Z4GlEFaCylAWL-54" value="" style="shape=partialRectangle;connectable=0;fillColor=none;top=0;left=0;bottom=0;right=0;editable=1;overflow=hidden;whiteSpace=wrap;html=1;" vertex="1" parent="yRT54x4Z4GlEFaCylAWL-53">
          <mxGeometry width="30" height="30" as="geometry">
            <mxRectangle width="30" height="30" as="alternateBounds" />
          </mxGeometry>
        </mxCell>
        <mxCell id="yRT54x4Z4GlEFaCylAWL-55" value="Pontuacao" style="shape=partialRectangle;connectable=0;fillColor=none;top=0;left=0;bottom=0;right=0;align=left;spacingLeft=6;overflow=hidden;whiteSpace=wrap;html=1;" vertex="1" parent="yRT54x4Z4GlEFaCylAWL-53">
          <mxGeometry x="30" width="150" height="30" as="geometry">
            <mxRectangle width="150" height="30" as="alternateBounds" />
          </mxGeometry>
        </mxCell>
        <mxCell id="yRT54x4Z4GlEFaCylAWL-75" value="Jogo" style="shape=table;startSize=34;container=1;collapsible=1;childLayout=tableLayout;fixedRows=1;rowLines=0;fontStyle=1;align=center;resizeLast=1;html=1;whiteSpace=wrap;" vertex="1" parent="1">
          <mxGeometry x="80" y="-409" width="290" height="237" as="geometry" />
        </mxCell>
        <mxCell id="yRT54x4Z4GlEFaCylAWL-76" value="" style="shape=tableRow;horizontal=0;startSize=0;swimlaneHead=0;swimlaneBody=0;fillColor=none;collapsible=0;dropTarget=0;points=[[0,0.5],[1,0.5]];portConstraint=eastwest;top=0;left=0;right=0;bottom=0;html=1;" vertex="1" parent="yRT54x4Z4GlEFaCylAWL-75">
          <mxGeometry y="34" width="290" height="35" as="geometry" />
        </mxCell>
        <mxCell id="yRT54x4Z4GlEFaCylAWL-77" value="PK" style="shape=partialRectangle;connectable=0;fillColor=none;top=0;left=0;bottom=0;right=0;fontStyle=1;overflow=hidden;html=1;whiteSpace=wrap;" vertex="1" parent="yRT54x4Z4GlEFaCylAWL-76">
          <mxGeometry width="60" height="35" as="geometry">
            <mxRectangle width="60" height="35" as="alternateBounds" />
          </mxGeometry>
        </mxCell>
        <mxCell id="yRT54x4Z4GlEFaCylAWL-78" value="Partida" style="shape=partialRectangle;connectable=0;fillColor=none;top=0;left=0;bottom=0;right=0;align=left;spacingLeft=6;fontStyle=5;overflow=hidden;html=1;whiteSpace=wrap;" vertex="1" parent="yRT54x4Z4GlEFaCylAWL-76">
          <mxGeometry x="60" width="230" height="35" as="geometry">
            <mxRectangle width="230" height="35" as="alternateBounds" />
          </mxGeometry>
        </mxCell>
        <mxCell id="yRT54x4Z4GlEFaCylAWL-79" value="" style="shape=tableRow;horizontal=0;startSize=0;swimlaneHead=0;swimlaneBody=0;fillColor=none;collapsible=0;dropTarget=0;points=[[0,0.5],[1,0.5]];portConstraint=eastwest;top=0;left=0;right=0;bottom=1;html=1;" vertex="1" parent="yRT54x4Z4GlEFaCylAWL-75">
          <mxGeometry y="69" width="290" height="20" as="geometry" />
        </mxCell>
        <mxCell id="yRT54x4Z4GlEFaCylAWL-80" value="" style="shape=partialRectangle;connectable=0;fillColor=none;top=0;left=0;bottom=0;right=0;fontStyle=1;overflow=hidden;html=1;whiteSpace=wrap;" vertex="1" parent="yRT54x4Z4GlEFaCylAWL-79">
          <mxGeometry width="60" height="20" as="geometry">
            <mxRectangle width="60" height="20" as="alternateBounds" />
          </mxGeometry>
        </mxCell>
        <mxCell id="yRT54x4Z4GlEFaCylAWL-81" value="" style="shape=partialRectangle;connectable=0;fillColor=none;top=0;left=0;bottom=0;right=0;align=left;spacingLeft=6;fontStyle=5;overflow=hidden;html=1;whiteSpace=wrap;" vertex="1" parent="yRT54x4Z4GlEFaCylAWL-79">
          <mxGeometry x="60" width="230" height="20" as="geometry">
            <mxRectangle width="230" height="20" as="alternateBounds" />
          </mxGeometry>
        </mxCell>
        <mxCell id="yRT54x4Z4GlEFaCylAWL-82" value="" style="shape=tableRow;horizontal=0;startSize=0;swimlaneHead=0;swimlaneBody=0;fillColor=none;collapsible=0;dropTarget=0;points=[[0,0.5],[1,0.5]];portConstraint=eastwest;top=0;left=0;right=0;bottom=0;html=1;" vertex="1" parent="yRT54x4Z4GlEFaCylAWL-75">
          <mxGeometry y="89" width="290" height="30" as="geometry" />
        </mxCell>
        <mxCell id="yRT54x4Z4GlEFaCylAWL-83" value="" style="shape=partialRectangle;connectable=0;fillColor=none;top=0;left=0;bottom=0;right=0;editable=1;overflow=hidden;html=1;whiteSpace=wrap;" vertex="1" parent="yRT54x4Z4GlEFaCylAWL-82">
          <mxGeometry width="60" height="30" as="geometry">
            <mxRectangle width="60" height="30" as="alternateBounds" />
          </mxGeometry>
        </mxCell>
        <mxCell id="yRT54x4Z4GlEFaCylAWL-84" value="Gols Time Casa" style="shape=partialRectangle;connectable=0;fillColor=none;top=0;left=0;bottom=0;right=0;align=left;spacingLeft=6;overflow=hidden;html=1;whiteSpace=wrap;" vertex="1" parent="yRT54x4Z4GlEFaCylAWL-82">
          <mxGeometry x="60" width="230" height="30" as="geometry">
            <mxRectangle width="230" height="30" as="alternateBounds" />
          </mxGeometry>
        </mxCell>
        <mxCell id="yRT54x4Z4GlEFaCylAWL-85" value="" style="shape=tableRow;horizontal=0;startSize=0;swimlaneHead=0;swimlaneBody=0;fillColor=none;collapsible=0;dropTarget=0;points=[[0,0.5],[1,0.5]];portConstraint=eastwest;top=0;left=0;right=0;bottom=0;html=1;" vertex="1" parent="yRT54x4Z4GlEFaCylAWL-75">
          <mxGeometry y="119" width="290" height="26" as="geometry" />
        </mxCell>
        <mxCell id="yRT54x4Z4GlEFaCylAWL-86" value="" style="shape=partialRectangle;connectable=0;fillColor=none;top=0;left=0;bottom=0;right=0;editable=1;overflow=hidden;html=1;whiteSpace=wrap;" vertex="1" parent="yRT54x4Z4GlEFaCylAWL-85">
          <mxGeometry width="60" height="26" as="geometry">
            <mxRectangle width="60" height="26" as="alternateBounds" />
          </mxGeometry>
        </mxCell>
        <mxCell id="yRT54x4Z4GlEFaCylAWL-87" value="Gols Time Visitante" style="shape=partialRectangle;connectable=0;fillColor=none;top=0;left=0;bottom=0;right=0;align=left;spacingLeft=6;overflow=hidden;html=1;whiteSpace=wrap;" vertex="1" parent="yRT54x4Z4GlEFaCylAWL-85">
          <mxGeometry x="60" width="230" height="26" as="geometry">
            <mxRectangle width="230" height="26" as="alternateBounds" />
          </mxGeometry>
        </mxCell>
        <mxCell id="yRT54x4Z4GlEFaCylAWL-88" value="" style="shape=tableRow;horizontal=0;startSize=0;swimlaneHead=0;swimlaneBody=0;fillColor=none;collapsible=0;dropTarget=0;points=[[0,0.5],[1,0.5]];portConstraint=eastwest;top=0;left=0;right=0;bottom=0;" vertex="1" parent="yRT54x4Z4GlEFaCylAWL-75">
          <mxGeometry y="145" width="290" height="32" as="geometry" />
        </mxCell>
        <mxCell id="yRT54x4Z4GlEFaCylAWL-89" value="FK" style="shape=partialRectangle;connectable=0;fillColor=none;top=0;left=0;bottom=0;right=0;fontStyle=0;overflow=hidden;whiteSpace=wrap;html=1;" vertex="1" parent="yRT54x4Z4GlEFaCylAWL-88">
          <mxGeometry width="60" height="32" as="geometry">
            <mxRectangle width="60" height="32" as="alternateBounds" />
          </mxGeometry>
        </mxCell>
        <mxCell id="yRT54x4Z4GlEFaCylAWL-90" value="Nome Time Mandante" style="shape=partialRectangle;connectable=0;fillColor=none;top=0;left=0;bottom=0;right=0;align=left;spacingLeft=6;fontStyle=0;overflow=hidden;whiteSpace=wrap;html=1;" vertex="1" parent="yRT54x4Z4GlEFaCylAWL-88">
          <mxGeometry x="60" width="230" height="32" as="geometry">
            <mxRectangle width="230" height="32" as="alternateBounds" />
          </mxGeometry>
        </mxCell>
        <mxCell id="yRT54x4Z4GlEFaCylAWL-91" style="shape=tableRow;horizontal=0;startSize=0;swimlaneHead=0;swimlaneBody=0;fillColor=none;collapsible=0;dropTarget=0;points=[[0,0.5],[1,0.5]];portConstraint=eastwest;top=0;left=0;right=0;bottom=0;" vertex="1" parent="yRT54x4Z4GlEFaCylAWL-75">
          <mxGeometry y="177" width="290" height="30" as="geometry" />
        </mxCell>
        <mxCell id="yRT54x4Z4GlEFaCylAWL-92" style="shape=partialRectangle;connectable=0;fillColor=none;top=0;left=0;bottom=0;right=0;fontStyle=0;overflow=hidden;whiteSpace=wrap;html=1;" vertex="1" parent="yRT54x4Z4GlEFaCylAWL-91">
          <mxGeometry width="60" height="30" as="geometry">
            <mxRectangle width="60" height="30" as="alternateBounds" />
          </mxGeometry>
        </mxCell>
        <mxCell id="yRT54x4Z4GlEFaCylAWL-93" value="Nome Time Visitante" style="shape=partialRectangle;connectable=0;fillColor=none;top=0;left=0;bottom=0;right=0;align=left;spacingLeft=6;fontStyle=0;overflow=hidden;whiteSpace=wrap;html=1;" vertex="1" parent="yRT54x4Z4GlEFaCylAWL-91">
          <mxGeometry x="60" width="230" height="30" as="geometry">
            <mxRectangle width="230" height="30" as="alternateBounds" />
          </mxGeometry>
        </mxCell>
        <mxCell id="yRT54x4Z4GlEFaCylAWL-94" style="shape=tableRow;horizontal=0;startSize=0;swimlaneHead=0;swimlaneBody=0;fillColor=none;collapsible=0;dropTarget=0;points=[[0,0.5],[1,0.5]];portConstraint=eastwest;top=0;left=0;right=0;bottom=0;" vertex="1" parent="yRT54x4Z4GlEFaCylAWL-75">
          <mxGeometry y="207" width="290" height="30" as="geometry" />
        </mxCell>
        <mxCell id="yRT54x4Z4GlEFaCylAWL-95" style="shape=partialRectangle;connectable=0;fillColor=none;top=0;left=0;bottom=0;right=0;fontStyle=0;overflow=hidden;whiteSpace=wrap;html=1;" vertex="1" parent="yRT54x4Z4GlEFaCylAWL-94">
          <mxGeometry width="60" height="30" as="geometry">
            <mxRectangle width="60" height="30" as="alternateBounds" />
          </mxGeometry>
        </mxCell>
        <mxCell id="yRT54x4Z4GlEFaCylAWL-96" style="shape=partialRectangle;connectable=0;fillColor=none;top=0;left=0;bottom=0;right=0;align=left;spacingLeft=6;fontStyle=0;overflow=hidden;whiteSpace=wrap;html=1;" vertex="1" parent="yRT54x4Z4GlEFaCylAWL-94">
          <mxGeometry x="60" width="230" height="30" as="geometry">
            <mxRectangle width="230" height="30" as="alternateBounds" />
          </mxGeometry>
        </mxCell>
        <mxCell id="yRT54x4Z4GlEFaCylAWL-97" value="FK" style="shape=partialRectangle;connectable=0;fillColor=none;top=0;left=0;bottom=0;right=0;fontStyle=0;overflow=hidden;whiteSpace=wrap;html=1;" vertex="1" parent="1">
          <mxGeometry x="80" y="-203" width="60" height="30" as="geometry">
            <mxRectangle width="60" height="30" as="alternateBounds" />
          </mxGeometry>
        </mxCell>
        <mxCell id="yRT54x4Z4GlEFaCylAWL-101" value="ID Campeonato" style="shape=partialRectangle;connectable=0;fillColor=none;top=0;left=0;bottom=0;right=0;align=left;spacingLeft=6;fontStyle=0;overflow=hidden;whiteSpace=wrap;html=1;direction=south;" vertex="1" parent="1">
          <mxGeometry x="140" y="-203" width="151" height="42" as="geometry">
            <mxRectangle width="230" height="32" as="alternateBounds" />
          </mxGeometry>
        </mxCell>
        <mxCell id="yRT54x4Z4GlEFaCylAWL-102" value="FK" style="shape=partialRectangle;connectable=0;fillColor=none;top=0;left=0;bottom=0;right=0;fontStyle=0;overflow=hidden;whiteSpace=wrap;html=1;" vertex="1" parent="1">
          <mxGeometry x="80" y="-235" width="60" height="32" as="geometry">
            <mxRectangle width="60" height="32" as="alternateBounds" />
          </mxGeometry>
        </mxCell>
        <mxCell id="ghh1lGOYatZ51Hjj_ix2-1" value="" style="endArrow=none;html=1;rounded=0;entryX=0;entryY=0.5;entryDx=0;entryDy=0;edgeStyle=orthogonalEdgeStyle;exitX=1;exitY=0.5;exitDx=0;exitDy=0;" edge="1" parent="1" source="yRT54x4Z4GlEFaCylAWL-24" target="yRT54x4Z4GlEFaCylAWL-85">
          <mxGeometry width="50" height="50" relative="1" as="geometry">
            <mxPoint x="-20" y="-359" as="sourcePoint" />
            <mxPoint x="30" y="-409" as="targetPoint" />
          </mxGeometry>
        </mxCell>
        <mxCell id="ghh1lGOYatZ51Hjj_ix2-2" value="" style="endArrow=none;html=1;rounded=0;exitX=1;exitY=0.5;exitDx=0;exitDy=0;edgeStyle=orthogonalEdgeStyle;entryX=0;entryY=0.5;entryDx=0;entryDy=0;" edge="1" parent="1" source="yRT54x4Z4GlEFaCylAWL-88" target="yRT54x4Z4GlEFaCylAWL-44">
          <mxGeometry width="50" height="50" relative="1" as="geometry">
            <mxPoint x="480" y="-265" as="sourcePoint" />
            <mxPoint x="530" y="-315" as="targetPoint" />
          </mxGeometry>
        </mxCell>
        <mxCell id="8_D3ud6S-8dqokmqy2TS-25" value="Jogo mais gols" style="shape=partialRectangle;connectable=0;fillColor=none;top=0;left=0;bottom=0;right=0;align=left;spacingLeft=10;overflow=hidden;whiteSpace=wrap;html=1;" vertex="1" parent="1">
          <mxGeometry x="-205" y="-201" width="180" height="29" as="geometry">
            <mxRectangle width="180" height="29" as="alternateBounds" />
          </mxGeometry>
        </mxCell>
        <mxCell id="8_D3ud6S-8dqokmqy2TS-26" value="Time com mais gols no mesmo jogo" style="shape=partialRectangle;connectable=0;fillColor=none;top=0;left=0;bottom=0;right=0;align=left;spacingLeft=9;overflow=hidden;whiteSpace=wrap;html=1;" vertex="1" parent="1">
          <mxGeometry x="-205" y="-171" width="205" height="29" as="geometry">
            <mxRectangle width="180" height="29" as="alternateBounds" />
          </mxGeometry>
        </mxCell>
        <mxCell id="8_D3ud6S-8dqokmqy2TS-27" style="shape=partialRectangle;connectable=0;fillColor=none;top=0;left=0;bottom=0;right=0;editable=1;overflow=hidden;whiteSpace=wrap;html=1;" vertex="1" parent="1">
          <mxGeometry x="-235" y="-200" width="30" height="29" as="geometry">
            <mxRectangle width="30" height="29" as="alternateBounds" />
          </mxGeometry>
        </mxCell>
        <mxCell id="iwA-olpUCQT--OE62OwV-2" value="&lt;span style=&quot;color: rgb(240, 240, 240); font-family: Helvetica; font-size: 12px; font-style: normal; font-variant-ligatures: normal; font-variant-caps: normal; font-weight: 400; letter-spacing: normal; orphans: 2; text-align: left; text-indent: 0px; text-transform: none; widows: 2; word-spacing: 0px; -webkit-text-stroke-width: 0px; white-space: normal; background-color: rgb(24, 20, 29); text-decoration-thickness: initial; text-decoration-style: initial; text-decoration-color: initial; display: inline !important; float: none;&quot;&gt;Time que recebeu mais gols&lt;/span&gt;" style="text;whiteSpace=wrap;html=1;fontFamily=Helvetica;fontSize=12;fontColor=default;labelBackgroundColor=default;spacingLeft=3;" vertex="1" parent="1">
          <mxGeometry x="-200" y="-230" width="180" height="40" as="geometry" />
        </mxCell>
        <mxCell id="VlG-fmpChK6nvQZJ2Uri-4" value="" style="line;strokeWidth=1;direction=south;html=1;strokeColor=inherit;align=left;verticalAlign=middle;spacingLeft=3;spacingRight=3;spacingTop=-1;fontFamily=Helvetica;fontSize=12;fontColor=default;labelBackgroundColor=default;fillColor=none;" vertex="1" parent="1">
          <mxGeometry x="-205" y="-200" width="10" height="80" as="geometry" />
        </mxCell>
        <mxCell id="QqgDC-k_dS0pJtPply77-5" value="&lt;span style=&quot;color: rgb(240, 240, 240); font-family: Helvetica; font-size: 12px; font-style: normal; font-variant-ligatures: normal; font-variant-caps: normal; font-weight: 400; letter-spacing: normal; orphans: 2; text-align: left; text-indent: 0px; text-transform: none; widows: 2; word-spacing: 0px; -webkit-text-stroke-width: 0px; white-space: normal; background-color: rgb(24, 20, 29); text-decoration-thickness: initial; text-decoration-style: initial; text-decoration-color: initial; display: inline !important; float: none;&quot;&gt;Gols feitos&lt;/span&gt;&lt;div&gt;&lt;br&gt;&lt;/div&gt;&lt;div&gt;&lt;span style=&quot;color: rgb(240, 240, 240); font-family: Helvetica; font-size: 12px; font-style: normal; font-variant-ligatures: normal; font-variant-caps: normal; font-weight: 400; letter-spacing: normal; orphans: 2; text-align: left; text-indent: 0px; text-transform: none; widows: 2; word-spacing: 0px; -webkit-text-stroke-width: 0px; white-space: normal; background-color: rgb(24, 20, 29); text-decoration-thickness: initial; text-decoration-style: initial; text-decoration-color: initial; display: inline !important; float: none;&quot;&gt;&lt;br&gt;&lt;/span&gt;&lt;/div&gt;" style="text;whiteSpace=wrap;html=1;fontFamily=Helvetica;fontSize=12;fontColor=default;labelBackgroundColor=default;strokeWidth=0;perimeterSpacing=2;spacingTop=-5;spacing=2;spacingLeft=4;spacingBottom=3;spacingRight=0;" vertex="1" parent="1">
          <mxGeometry x="490" y="-259" width="120" height="19" as="geometry" />
        </mxCell>
        <mxCell id="QqgDC-k_dS0pJtPply77-6" value="&lt;br&gt;&lt;div style=&quot;forced-color-adjust: none; border-color: rgb(0, 0, 0); color: rgb(240, 240, 240); font-family: Helvetica; font-size: 12px; font-style: normal; font-variant-ligatures: normal; font-variant-caps: normal; font-weight: 400; letter-spacing: normal; orphans: 2; text-align: left; text-indent: 0px; text-transform: none; widows: 2; word-spacing: 0px; -webkit-text-stroke-width: 0px; white-space: normal; text-decoration-thickness: initial; text-decoration-style: initial; text-decoration-color: initial;&quot;&gt;&lt;span style=&quot;forced-color-adjust: none; border-color: rgb(0, 0, 0); color: rgb(240, 240, 240); font-family: Helvetica; font-size: 12px; font-style: normal; font-variant-ligatures: normal; font-variant-caps: normal; font-weight: 400; letter-spacing: normal; orphans: 2; text-align: left; text-indent: 0px; text-transform: none; widows: 2; word-spacing: 0px; -webkit-text-stroke-width: 0px; white-space: normal; background-color: rgb(24, 20, 29); text-decoration-thickness: initial; text-decoration-style: initial; text-decoration-color: initial; float: none; display: inline !important;&quot;&gt;Gols sofridos&lt;/span&gt;&lt;/div&gt;" style="text;whiteSpace=wrap;html=1;fontFamily=Helvetica;fontSize=12;fontColor=default;labelBackgroundColor=default;spacingLeft=4;spacingBottom=-2;spacingRight=2;spacing=2;spacingTop=-1;" vertex="1" parent="1">
          <mxGeometry x="490" y="-250" width="80" height="50" as="geometry" />
        </mxCell>
        <mxCell id="QqgDC-k_dS0pJtPply77-8" value="" style="line;strokeWidth=1;direction=south;html=1;strokeColor=inherit;align=left;verticalAlign=middle;spacingLeft=5;spacingRight=3;spacingTop=1;fontFamily=Helvetica;fontSize=12;fontColor=default;labelBackgroundColor=default;fillColor=none;perimeterSpacing=0;spacing=0;" vertex="1" parent="1">
          <mxGeometry x="480" y="-268" width="20" height="58" as="geometry" />
        </mxCell>
      </root>
    </mxGraphModel>
  </diagram>
</mxfile>
